# xmcd CD database file
#
# Track frame offsets:
#	150
#	18090
#	27887
#	48730
#	67105
#	84585
#	99950
#	105090
#	117940
#	139145
#	157987
#	179817
#
# Disc length: 2697 seconds
#
# Revision: 0
# Processed by: cddbd v1.5.1PL2 Copyright (c) Steve Scherf et al.
# Submitted via: CDex 1.51
#
DISCID=960a870c
DTITLE=Various Artist - 第3世代compilation album vol.1〜Do the BANDS!!!〜
DYEAR=2005
DGENRE=JPop
TTITLE0=あぁ見上げれば狂騒の夜空に
TTITLE1=セカハー
TTITLE2=Lucky
TTITLE3=雨のち晴れで世界はまわる
TTITLE4=Balanco
TTITLE5=チョコレーツ
TTITLE6=Good Mornig Blues
TTITLE7=シャイニング
TTITLE8=ジャスミンの花を飾ろう
TTITLE9=なんつったって哀どる
TTITLE10=ウィズ
TTITLE11=未来予知
EXTD=YEAR: 2005
EXTT0=
EXTT1=
EXTT2=
EXTT3=
EXTT4=
EXTT5=
EXTT6=
EXTT7=
EXTT8=
EXTT9=
EXTT10=
EXTT11=
PLAYORDER=
